<svg width="236" height="236" viewBox="0 0 236 236" fill="none" xmlns="http://www.w3.org/2000/svg">
<defs>
<clipPath id="ce"><rect width="236" height="236" fill="white"/></clipPath>
<mask id="pen_mask" style="mask-type:alpha" maskUnits="userSpaceOnUse" x="20" y="4" width="196" height="228">
  <!-- Pen shape: vertical fountain pen / stylus -->
  <!-- Body (main rect, rounded top) -->
  <rect x="94" y="24" width="48" height="160" rx="24" fill="white"/>
  <!-- Grip section (slightly narrower) -->
  <rect x="96" y="162" width="44" height="32" fill="white"/>
  <!-- Nib section (tapers) -->
  <polygon points="96,194 140,194 130,222 106,222" fill="white"/>
  <!-- Tip (point) -->
  <polygon points="106,222 130,222 118,234" fill="white"/>
</mask>

<linearGradient id="pen_front" x1="94" y1="4" x2="142" y2="236" gradientUnits="userSpaceOnUse">
  <stop offset="0%"  stop-color="#fbbf24"/>
  <stop offset="45%" stop-color="#f59e0b"/>
  <stop offset="80%" stop-color="#d97706"/>
  <stop offset="100%" stop-color="#92400e"/>
</linearGradient>
<linearGradient id="pen_mid" x1="94" y1="4" x2="142" y2="236" gradientUnits="userSpaceOnUse">
  <stop offset="0%"  stop-color="#f59e0b"/>
  <stop offset="100%" stop-color="#b45309"/>
</linearGradient>
<linearGradient id="pen_back" x1="94" y1="4" x2="142" y2="236" gradientUnits="userSpaceOnUse">
  <stop offset="0%"  stop-color="#d97706"/>
  <stop offset="100%" stop-color="#78350f"/>
</linearGradient>
<radialGradient id="pen_bloom" cx="104" cy="40" r="80" gradientUnits="userSpaceOnUse">
  <stop offset="0%"  stop-color="white" stop-opacity="0.28"/>
  <stop offset="100%" stop-color="white" stop-opacity="0"/>
</radialGradient>
<!-- Nib/tip gradient (darker metallic) -->
<linearGradient id="nib_grad" x1="106" y1="194" x2="130" y2="234" gradientUnits="userSpaceOnUse">
  <stop offset="0%"  stop-color="#d1d5db"/>
  <stop offset="50%" stop-color="#9ca3af"/>
  <stop offset="100%" stop-color="#4b5563"/>
</linearGradient>
<!-- Clip paths for each layer -->
<clipPath id="pen_shape_clip">
  <rect x="94" y="24" width="48" height="160" rx="24"/>
</clipPath>
<filter id="fshadow_pen" x="84" y="14" width="68" height="228" filterUnits="userSpaceOnUse" color-interpolation-filters="sRGB">
  <feFlood flood-opacity="0" result="BackgroundImageFix"/>
  <feColorMatrix in="SourceAlpha" type="matrix" values="0 0 0 0 0 0 0 0 0 0 0 0 0 0 0 0 0 0 127 0" result="hardAlpha"/>
  <feOffset dy="3"/>
  <feGaussianBlur stdDeviation="5"/>
  <feComposite in2="hardAlpha" operator="out"/>
  <feColorMatrix type="matrix" values="0 0 0 0 0.10 0 0 0 0 0.06 0 0 0 0 0.00 0 0 0 0.55 0"/>
  <feBlend mode="normal" in2="BackgroundImageFix" result="e1"/>
  <feColorMatrix in="SourceAlpha" type="matrix" values="0 0 0 0 0 0 0 0 0 0 0 0 0 0 0 0 0 0 127 0" result="hardAlpha"/>
  <feOffset dy="-2"/>
  <feComposite in2="hardAlpha" operator="out"/>
  <feColorMatrix type="matrix" values="0 0 0 0 0.08 0 0 0 0 0.05 0 0 0 0 0.00 0 0 0 0.35 0"/>
  <feBlend mode="normal" in2="e1" result="e2"/>
  <feBlend mode="normal" in="SourceGraphic" in2="e2"/>
</filter>
</defs>

<g clip-path="url(#ce)">

<!-- Eraser cap (top, pink/red) - depth layers -->
<rect x="96"  y="28"  width="44" height="28" rx="22" fill="#f43f5e" opacity="0.6"/>
<rect x="96"  y="27"  width="44" height="28" rx="22" fill="#fb7185"/>
<rect x="96"  y="26"  width="44" height="28" rx="22" fill="url(#eraser_g)"/>

<!-- Pen body - 3 depth layers (back → mid → front) -->
<rect x="94"  y="52"  width="48" height="144" rx="0" fill="#b45309" opacity="0.55"/>
<rect x="94"  y="51"  width="48" height="144" rx="0" fill="url(#pen_back)"/>
<g filter="url(#fshadow_pen)">
  <rect x="94"  y="50"  width="48" height="144" rx="0" fill="url(#pen_front)"/>
</g>

<!-- Top cap (rounded) over body -->
<rect x="94" y="50" width="48" height="24" rx="0" fill="url(#pen_front)" opacity="0.95"/>
<!-- Rounded top of body (semicircle cap) -->
<rect x="94" y="36" width="48" height="30" rx="24" fill="url(#pen_front)"/>

<!-- Grip band (subtle darker band) -->
<rect x="94" y="168" width="48" height="24" rx="0" fill="rgba(0,0,0,0.18)"/>
<rect x="96" y="170" width="44" height="20" rx="2" fill="rgba(255,255,255,0.08)"/>

<!-- Nib section (trapezoidal taper) -->
<polygon points="94,192 142,192 134,218 102,218" fill="url(#pen_mid)"/>
<polygon points="94,192 142,192 134,218 102,218" fill="rgba(0,0,0,0.12)"/>

<!-- Metallic nib tip -->
<polygon points="102,218 134,218 118,234" fill="url(#nib_grad)"/>
<!-- Nib slit (center line) -->
<line x1="118" y1="210" x2="118" y2="234" stroke="rgba(0,0,0,0.35)" stroke-width="1.5"/>

<!-- Light bloom on pen body -->
<mask id="pen_body_mask" style="mask-type:alpha" maskUnits="userSpaceOnUse" x="94" y="36" width="48" height="158">
  <rect x="94" y="36" width="48" height="158" fill="white"/>
</mask>
<g mask="url(#pen_body_mask)">
  <circle cx="104" cy="60" r="50" fill="url(#pen_bloom)"/>
</g>

<!-- Side highlight line -->
<line x1="105" y1="38" x2="105" y2="192" stroke="rgba(255,255,255,0.18)" stroke-width="2"/>

<!-- Clip rect 50px wide band on right for dark side shadow -->

</g>
<defs>
<linearGradient id="eraser_g" x1="96" y1="26" x2="140" y2="54" gradientUnits="userSpaceOnUse">
  <stop offset="0%"  stop-color="#fda4af"/>
  <stop offset="100%" stop-color="#e11d48"/>
</linearGradient>
</defs>
</svg>